<mxfile host="app.diagrams.net" agent="Mozilla/5.0 (Windows NT 10.0; Win64; x64) AppleWebKit/537.36 (KHTML, like Gecko) Chrome/140.0.0.0 Safari/537.36" version="28.2.3">
  <diagram name="Page-1" id="y-BOeMATzjwb4VCk9Nun">
    <mxGraphModel dx="1042" dy="1662" grid="1" gridSize="10" guides="1" tooltips="1" connect="1" arrows="1" fold="1" page="1" pageScale="1" pageWidth="850" pageHeight="1100" math="0" shadow="0">
      <root>
        <mxCell id="0" />
        <mxCell id="1" parent="0" />
        <mxCell id="gLdjaeURrb0WV8xLbamN-3" value="" style="edgeStyle=orthogonalEdgeStyle;rounded=0;orthogonalLoop=1;jettySize=auto;html=1;" parent="1" source="gLdjaeURrb0WV8xLbamN-1" target="gLdjaeURrb0WV8xLbamN-2" edge="1">
          <mxGeometry relative="1" as="geometry" />
        </mxCell>
        <mxCell id="gLdjaeURrb0WV8xLbamN-1" value="School" style="rounded=0;whiteSpace=wrap;html=1;" parent="1" vertex="1">
          <mxGeometry x="110" y="-940" width="120" height="60" as="geometry" />
        </mxCell>
        <mxCell id="gLdjaeURrb0WV8xLbamN-5" value="" style="edgeStyle=orthogonalEdgeStyle;rounded=0;orthogonalLoop=1;jettySize=auto;html=1;" parent="1" source="gLdjaeURrb0WV8xLbamN-2" target="gLdjaeURrb0WV8xLbamN-4" edge="1">
          <mxGeometry relative="1" as="geometry" />
        </mxCell>
        <mxCell id="gLdjaeURrb0WV8xLbamN-2" value="Marks Management" style="whiteSpace=wrap;html=1;rounded=0;" parent="1" vertex="1">
          <mxGeometry x="310" y="-940" width="120" height="60" as="geometry" />
        </mxCell>
        <mxCell id="gLdjaeURrb0WV8xLbamN-7" value="" style="edgeStyle=orthogonalEdgeStyle;rounded=0;orthogonalLoop=1;jettySize=auto;html=1;" parent="1" source="gLdjaeURrb0WV8xLbamN-4" target="gLdjaeURrb0WV8xLbamN-6" edge="1">
          <mxGeometry relative="1" as="geometry" />
        </mxCell>
        <mxCell id="gLdjaeURrb0WV8xLbamN-4" value="Python" style="whiteSpace=wrap;html=1;rounded=0;" parent="1" vertex="1">
          <mxGeometry x="510" y="-940" width="120" height="60" as="geometry" />
        </mxCell>
        <mxCell id="gLdjaeURrb0WV8xLbamN-9" value="" style="edgeStyle=orthogonalEdgeStyle;rounded=0;orthogonalLoop=1;jettySize=auto;html=1;" parent="1" source="gLdjaeURrb0WV8xLbamN-6" target="gLdjaeURrb0WV8xLbamN-8" edge="1">
          <mxGeometry relative="1" as="geometry" />
        </mxCell>
        <mxCell id="gLdjaeURrb0WV8xLbamN-6" value="Students" style="whiteSpace=wrap;html=1;rounded=0;" parent="1" vertex="1">
          <mxGeometry x="510" y="-800" width="120" height="60" as="geometry" />
        </mxCell>
        <mxCell id="gLdjaeURrb0WV8xLbamN-11" value="" style="edgeStyle=orthogonalEdgeStyle;rounded=0;orthogonalLoop=1;jettySize=auto;html=1;" parent="1" source="gLdjaeURrb0WV8xLbamN-8" target="gLdjaeURrb0WV8xLbamN-10" edge="1">
          <mxGeometry relative="1" as="geometry" />
        </mxCell>
        <mxCell id="gLdjaeURrb0WV8xLbamN-8" value="Class Name" style="whiteSpace=wrap;html=1;rounded=0;" parent="1" vertex="1">
          <mxGeometry x="310" y="-800" width="120" height="60" as="geometry" />
        </mxCell>
        <mxCell id="gLdjaeURrb0WV8xLbamN-13" value="" style="edgeStyle=orthogonalEdgeStyle;rounded=0;orthogonalLoop=1;jettySize=auto;html=1;" parent="1" source="gLdjaeURrb0WV8xLbamN-10" target="gLdjaeURrb0WV8xLbamN-12" edge="1">
          <mxGeometry relative="1" as="geometry" />
        </mxCell>
        <mxCell id="gLdjaeURrb0WV8xLbamN-10" value="Exams --&amp;gt; 1st Unit" style="whiteSpace=wrap;html=1;rounded=0;" parent="1" vertex="1">
          <mxGeometry x="110" y="-800" width="120" height="60" as="geometry" />
        </mxCell>
        <mxCell id="gLdjaeURrb0WV8xLbamN-15" value="" style="edgeStyle=orthogonalEdgeStyle;rounded=0;orthogonalLoop=1;jettySize=auto;html=1;" parent="1" source="gLdjaeURrb0WV8xLbamN-12" target="gLdjaeURrb0WV8xLbamN-14" edge="1">
          <mxGeometry relative="1" as="geometry" />
        </mxCell>
        <mxCell id="gLdjaeURrb0WV8xLbamN-12" value="Subjects" style="whiteSpace=wrap;html=1;rounded=0;" parent="1" vertex="1">
          <mxGeometry x="110" y="-660" width="120" height="60" as="geometry" />
        </mxCell>
        <mxCell id="gLdjaeURrb0WV8xLbamN-17" value="" style="edgeStyle=orthogonalEdgeStyle;rounded=0;orthogonalLoop=1;jettySize=auto;html=1;" parent="1" source="gLdjaeURrb0WV8xLbamN-14" target="gLdjaeURrb0WV8xLbamN-16" edge="1">
          <mxGeometry relative="1" as="geometry" />
        </mxCell>
        <mxCell id="gLdjaeURrb0WV8xLbamN-14" value="Total" style="whiteSpace=wrap;html=1;rounded=0;" parent="1" vertex="1">
          <mxGeometry x="310" y="-660" width="120" height="60" as="geometry" />
        </mxCell>
        <mxCell id="gLdjaeURrb0WV8xLbamN-21" value="" style="edgeStyle=orthogonalEdgeStyle;rounded=0;orthogonalLoop=1;jettySize=auto;html=1;" parent="1" source="gLdjaeURrb0WV8xLbamN-16" target="gLdjaeURrb0WV8xLbamN-20" edge="1">
          <mxGeometry relative="1" as="geometry" />
        </mxCell>
        <mxCell id="gLdjaeURrb0WV8xLbamN-16" value="Percentage" style="whiteSpace=wrap;html=1;rounded=0;" parent="1" vertex="1">
          <mxGeometry x="510" y="-660" width="120" height="60" as="geometry" />
        </mxCell>
        <mxCell id="gLdjaeURrb0WV8xLbamN-23" value="" style="edgeStyle=orthogonalEdgeStyle;rounded=0;orthogonalLoop=1;jettySize=auto;html=1;" parent="1" source="gLdjaeURrb0WV8xLbamN-20" target="gLdjaeURrb0WV8xLbamN-22" edge="1">
          <mxGeometry relative="1" as="geometry" />
        </mxCell>
        <mxCell id="gLdjaeURrb0WV8xLbamN-20" value="Ranking" style="whiteSpace=wrap;html=1;rounded=0;" parent="1" vertex="1">
          <mxGeometry x="510" y="-520" width="120" height="60" as="geometry" />
        </mxCell>
        <mxCell id="gLdjaeURrb0WV8xLbamN-22" value="MySQL/Excel" style="whiteSpace=wrap;html=1;rounded=0;" parent="1" vertex="1">
          <mxGeometry x="310" y="-520" width="120" height="60" as="geometry" />
        </mxCell>
        <mxCell id="VHajkZywx5OL6_jmDGhc-2" value="" style="edgeStyle=orthogonalEdgeStyle;rounded=0;orthogonalLoop=1;jettySize=auto;html=1;" parent="1" source="gLdjaeURrb0WV8xLbamN-24" target="VHajkZywx5OL6_jmDGhc-1" edge="1">
          <mxGeometry relative="1" as="geometry" />
        </mxCell>
        <mxCell id="gLdjaeURrb0WV8xLbamN-24" value="Student" style="rounded=1;whiteSpace=wrap;html=1;" parent="1" vertex="1">
          <mxGeometry x="110" y="-180" width="120" height="60" as="geometry" />
        </mxCell>
        <mxCell id="VHajkZywx5OL6_jmDGhc-4" value="" style="edgeStyle=orthogonalEdgeStyle;rounded=0;orthogonalLoop=1;jettySize=auto;html=1;" parent="1" source="VHajkZywx5OL6_jmDGhc-1" target="VHajkZywx5OL6_jmDGhc-3" edge="1">
          <mxGeometry relative="1" as="geometry" />
        </mxCell>
        <mxCell id="VHajkZywx5OL6_jmDGhc-1" value="name" style="whiteSpace=wrap;html=1;rounded=1;" parent="1" vertex="1">
          <mxGeometry x="340" y="-180" width="120" height="60" as="geometry" />
        </mxCell>
        <mxCell id="VHajkZywx5OL6_jmDGhc-6" value="" style="edgeStyle=orthogonalEdgeStyle;rounded=0;orthogonalLoop=1;jettySize=auto;html=1;" parent="1" source="VHajkZywx5OL6_jmDGhc-3" target="VHajkZywx5OL6_jmDGhc-5" edge="1">
          <mxGeometry relative="1" as="geometry" />
        </mxCell>
        <mxCell id="VHajkZywx5OL6_jmDGhc-3" value="roll number" style="whiteSpace=wrap;html=1;rounded=1;" parent="1" vertex="1">
          <mxGeometry x="540" y="-180" width="120" height="60" as="geometry" />
        </mxCell>
        <mxCell id="VHajkZywx5OL6_jmDGhc-8" value="" style="edgeStyle=orthogonalEdgeStyle;rounded=0;orthogonalLoop=1;jettySize=auto;html=1;" parent="1" source="VHajkZywx5OL6_jmDGhc-5" target="VHajkZywx5OL6_jmDGhc-7" edge="1">
          <mxGeometry relative="1" as="geometry" />
        </mxCell>
        <mxCell id="VHajkZywx5OL6_jmDGhc-5" value="class" style="whiteSpace=wrap;html=1;rounded=1;" parent="1" vertex="1">
          <mxGeometry x="540" y="-40" width="120" height="60" as="geometry" />
        </mxCell>
        <mxCell id="VHajkZywx5OL6_jmDGhc-10" value="" style="edgeStyle=orthogonalEdgeStyle;rounded=0;orthogonalLoop=1;jettySize=auto;html=1;" parent="1" source="VHajkZywx5OL6_jmDGhc-7" target="VHajkZywx5OL6_jmDGhc-9" edge="1">
          <mxGeometry relative="1" as="geometry" />
        </mxCell>
        <mxCell id="VHajkZywx5OL6_jmDGhc-12" value="" style="edgeStyle=orthogonalEdgeStyle;rounded=0;orthogonalLoop=1;jettySize=auto;html=1;" parent="1" source="VHajkZywx5OL6_jmDGhc-7" target="VHajkZywx5OL6_jmDGhc-11" edge="1">
          <mxGeometry relative="1" as="geometry" />
        </mxCell>
        <mxCell id="VHajkZywx5OL6_jmDGhc-7" value="Subject/mark" style="whiteSpace=wrap;html=1;rounded=1;" parent="1" vertex="1">
          <mxGeometry x="340" y="-40" width="120" height="60" as="geometry" />
        </mxCell>
        <mxCell id="VHajkZywx5OL6_jmDGhc-9" value="6 sub" style="whiteSpace=wrap;html=1;rounded=1;" parent="1" vertex="1">
          <mxGeometry x="140" y="-40" width="120" height="60" as="geometry" />
        </mxCell>
        <mxCell id="VHajkZywx5OL6_jmDGhc-11" value="if marks 0 =&amp;lt; =100" style="whiteSpace=wrap;html=1;rounded=1;" parent="1" vertex="1">
          <mxGeometry x="340" y="100" width="120" height="60" as="geometry" />
        </mxCell>
        <mxCell id="VHajkZywx5OL6_jmDGhc-13" value="1" style="rounded=1;whiteSpace=wrap;html=1;" parent="1" vertex="1">
          <mxGeometry x="240" y="250" width="120" height="60" as="geometry" />
        </mxCell>
        <mxCell id="VHajkZywx5OL6_jmDGhc-14" value="Invalid" style="whiteSpace=wrap;html=1;rounded=1;" parent="1" vertex="1">
          <mxGeometry x="410" y="250" width="120" height="60" as="geometry" />
        </mxCell>
        <mxCell id="VHajkZywx5OL6_jmDGhc-16" value="" style="rounded=0;whiteSpace=wrap;html=1;" parent="1" vertex="1">
          <mxGeometry x="150" y="220" width="520" height="170" as="geometry" />
        </mxCell>
        <mxCell id="VHajkZywx5OL6_jmDGhc-17" value="1" style="rounded=0;whiteSpace=wrap;html=1;" parent="1" vertex="1">
          <mxGeometry x="200" y="250" width="120" height="60" as="geometry" />
        </mxCell>
        <mxCell id="VHajkZywx5OL6_jmDGhc-20" value="" style="edgeStyle=orthogonalEdgeStyle;rounded=0;orthogonalLoop=1;jettySize=auto;html=1;" parent="1" source="VHajkZywx5OL6_jmDGhc-18" target="VHajkZywx5OL6_jmDGhc-19" edge="1">
          <mxGeometry relative="1" as="geometry" />
        </mxCell>
        <mxCell id="VHajkZywx5OL6_jmDGhc-21" value="break" style="edgeLabel;html=1;align=center;verticalAlign=middle;resizable=0;points=[];" parent="VHajkZywx5OL6_jmDGhc-20" vertex="1" connectable="0">
          <mxGeometry x="-0.195" y="-3" relative="1" as="geometry">
            <mxPoint as="offset" />
          </mxGeometry>
        </mxCell>
        <mxCell id="VHajkZywx5OL6_jmDGhc-18" value="Valid" style="rounded=0;whiteSpace=wrap;html=1;" parent="1" vertex="1">
          <mxGeometry x="420" y="250" width="120" height="60" as="geometry" />
        </mxCell>
        <mxCell id="VHajkZywx5OL6_jmDGhc-19" value="Main program should run" style="whiteSpace=wrap;html=1;rounded=0;" parent="1" vertex="1">
          <mxGeometry x="700" y="250" width="120" height="60" as="geometry" />
        </mxCell>
        <mxCell id="iUtMdNy8Lq5hEOHV9AKj-11" value="" style="shape=table;startSize=0;container=1;collapsible=0;childLayout=tableLayout;" parent="1" vertex="1">
          <mxGeometry x="120" y="540" width="210" height="112" as="geometry" />
        </mxCell>
        <mxCell id="iUtMdNy8Lq5hEOHV9AKj-12" value="" style="shape=tableRow;horizontal=0;startSize=0;swimlaneHead=0;swimlaneBody=0;strokeColor=inherit;top=0;left=0;bottom=0;right=0;collapsible=0;dropTarget=0;fillColor=none;points=[[0,0.5],[1,0.5]];portConstraint=eastwest;" parent="iUtMdNy8Lq5hEOHV9AKj-11" vertex="1">
          <mxGeometry width="210" height="20" as="geometry" />
        </mxCell>
        <mxCell id="iUtMdNy8Lq5hEOHV9AKj-13" value="" style="shape=partialRectangle;html=1;whiteSpace=wrap;connectable=0;strokeColor=inherit;overflow=hidden;fillColor=none;top=0;left=0;bottom=0;right=0;pointerEvents=1;" parent="iUtMdNy8Lq5hEOHV9AKj-12" vertex="1">
          <mxGeometry width="42" height="20" as="geometry">
            <mxRectangle width="42" height="20" as="alternateBounds" />
          </mxGeometry>
        </mxCell>
        <mxCell id="iUtMdNy8Lq5hEOHV9AKj-14" value="" style="shape=partialRectangle;html=1;whiteSpace=wrap;connectable=0;strokeColor=inherit;overflow=hidden;fillColor=none;top=0;left=0;bottom=0;right=0;pointerEvents=1;" parent="iUtMdNy8Lq5hEOHV9AKj-12" vertex="1">
          <mxGeometry x="42" width="64" height="20" as="geometry">
            <mxRectangle width="64" height="20" as="alternateBounds" />
          </mxGeometry>
        </mxCell>
        <mxCell id="iUtMdNy8Lq5hEOHV9AKj-15" value="" style="shape=partialRectangle;html=1;whiteSpace=wrap;connectable=0;strokeColor=inherit;overflow=hidden;fillColor=none;top=0;left=0;bottom=0;right=0;pointerEvents=1;" parent="iUtMdNy8Lq5hEOHV9AKj-12" vertex="1">
          <mxGeometry x="106" width="20" height="20" as="geometry">
            <mxRectangle width="20" height="20" as="alternateBounds" />
          </mxGeometry>
        </mxCell>
        <mxCell id="iUtMdNy8Lq5hEOHV9AKj-16" value="" style="shape=partialRectangle;html=1;whiteSpace=wrap;connectable=0;strokeColor=inherit;overflow=hidden;fillColor=none;top=0;left=0;bottom=0;right=0;pointerEvents=1;" parent="iUtMdNy8Lq5hEOHV9AKj-12" vertex="1">
          <mxGeometry x="126" width="42" height="20" as="geometry">
            <mxRectangle width="42" height="20" as="alternateBounds" />
          </mxGeometry>
        </mxCell>
        <mxCell id="iUtMdNy8Lq5hEOHV9AKj-17" value="" style="shape=partialRectangle;html=1;whiteSpace=wrap;connectable=0;strokeColor=inherit;overflow=hidden;fillColor=none;top=0;left=0;bottom=0;right=0;pointerEvents=1;" parent="iUtMdNy8Lq5hEOHV9AKj-12" vertex="1">
          <mxGeometry x="168" width="42" height="20" as="geometry">
            <mxRectangle width="42" height="20" as="alternateBounds" />
          </mxGeometry>
        </mxCell>
        <mxCell id="iUtMdNy8Lq5hEOHV9AKj-18" value="" style="shape=tableRow;horizontal=0;startSize=0;swimlaneHead=0;swimlaneBody=0;strokeColor=inherit;top=0;left=0;bottom=0;right=0;collapsible=0;dropTarget=0;fillColor=none;points=[[0,0.5],[1,0.5]];portConstraint=eastwest;" parent="iUtMdNy8Lq5hEOHV9AKj-11" vertex="1">
          <mxGeometry y="20" width="210" height="20" as="geometry" />
        </mxCell>
        <mxCell id="iUtMdNy8Lq5hEOHV9AKj-19" value="" style="shape=partialRectangle;html=1;whiteSpace=wrap;connectable=0;strokeColor=inherit;overflow=hidden;fillColor=none;top=0;left=0;bottom=0;right=0;pointerEvents=1;" parent="iUtMdNy8Lq5hEOHV9AKj-18" vertex="1">
          <mxGeometry width="42" height="20" as="geometry">
            <mxRectangle width="42" height="20" as="alternateBounds" />
          </mxGeometry>
        </mxCell>
        <mxCell id="iUtMdNy8Lq5hEOHV9AKj-20" value="" style="shape=partialRectangle;html=1;whiteSpace=wrap;connectable=0;strokeColor=inherit;overflow=hidden;fillColor=none;top=0;left=0;bottom=0;right=0;pointerEvents=1;" parent="iUtMdNy8Lq5hEOHV9AKj-18" vertex="1">
          <mxGeometry x="42" width="64" height="20" as="geometry">
            <mxRectangle width="64" height="20" as="alternateBounds" />
          </mxGeometry>
        </mxCell>
        <mxCell id="iUtMdNy8Lq5hEOHV9AKj-21" value="" style="shape=partialRectangle;html=1;whiteSpace=wrap;connectable=0;strokeColor=inherit;overflow=hidden;fillColor=none;top=0;left=0;bottom=0;right=0;pointerEvents=1;" parent="iUtMdNy8Lq5hEOHV9AKj-18" vertex="1">
          <mxGeometry x="106" width="20" height="20" as="geometry">
            <mxRectangle width="20" height="20" as="alternateBounds" />
          </mxGeometry>
        </mxCell>
        <mxCell id="iUtMdNy8Lq5hEOHV9AKj-22" value="" style="shape=partialRectangle;html=1;whiteSpace=wrap;connectable=0;strokeColor=inherit;overflow=hidden;fillColor=none;top=0;left=0;bottom=0;right=0;pointerEvents=1;" parent="iUtMdNy8Lq5hEOHV9AKj-18" vertex="1">
          <mxGeometry x="126" width="42" height="20" as="geometry">
            <mxRectangle width="42" height="20" as="alternateBounds" />
          </mxGeometry>
        </mxCell>
        <mxCell id="iUtMdNy8Lq5hEOHV9AKj-23" value="" style="shape=partialRectangle;html=1;whiteSpace=wrap;connectable=0;strokeColor=inherit;overflow=hidden;fillColor=none;top=0;left=0;bottom=0;right=0;pointerEvents=1;" parent="iUtMdNy8Lq5hEOHV9AKj-18" vertex="1">
          <mxGeometry x="168" width="42" height="20" as="geometry">
            <mxRectangle width="42" height="20" as="alternateBounds" />
          </mxGeometry>
        </mxCell>
        <mxCell id="iUtMdNy8Lq5hEOHV9AKj-24" value="" style="shape=tableRow;horizontal=0;startSize=0;swimlaneHead=0;swimlaneBody=0;strokeColor=inherit;top=0;left=0;bottom=0;right=0;collapsible=0;dropTarget=0;fillColor=none;points=[[0,0.5],[1,0.5]];portConstraint=eastwest;" parent="iUtMdNy8Lq5hEOHV9AKj-11" vertex="1">
          <mxGeometry y="40" width="210" height="24" as="geometry" />
        </mxCell>
        <mxCell id="iUtMdNy8Lq5hEOHV9AKj-25" value="" style="shape=partialRectangle;html=1;whiteSpace=wrap;connectable=0;strokeColor=inherit;overflow=hidden;fillColor=none;top=0;left=0;bottom=0;right=0;pointerEvents=1;" parent="iUtMdNy8Lq5hEOHV9AKj-24" vertex="1">
          <mxGeometry width="42" height="24" as="geometry">
            <mxRectangle width="42" height="24" as="alternateBounds" />
          </mxGeometry>
        </mxCell>
        <mxCell id="iUtMdNy8Lq5hEOHV9AKj-26" value="" style="shape=partialRectangle;html=1;whiteSpace=wrap;connectable=0;strokeColor=inherit;overflow=hidden;fillColor=none;top=0;left=0;bottom=0;right=0;pointerEvents=1;" parent="iUtMdNy8Lq5hEOHV9AKj-24" vertex="1">
          <mxGeometry x="42" width="64" height="24" as="geometry">
            <mxRectangle width="64" height="24" as="alternateBounds" />
          </mxGeometry>
        </mxCell>
        <mxCell id="iUtMdNy8Lq5hEOHV9AKj-27" value="" style="shape=partialRectangle;html=1;whiteSpace=wrap;connectable=0;strokeColor=inherit;overflow=hidden;fillColor=none;top=0;left=0;bottom=0;right=0;pointerEvents=1;" parent="iUtMdNy8Lq5hEOHV9AKj-24" vertex="1">
          <mxGeometry x="106" width="20" height="24" as="geometry">
            <mxRectangle width="20" height="24" as="alternateBounds" />
          </mxGeometry>
        </mxCell>
        <mxCell id="iUtMdNy8Lq5hEOHV9AKj-28" value="" style="shape=partialRectangle;html=1;whiteSpace=wrap;connectable=0;strokeColor=inherit;overflow=hidden;fillColor=none;top=0;left=0;bottom=0;right=0;pointerEvents=1;" parent="iUtMdNy8Lq5hEOHV9AKj-24" vertex="1">
          <mxGeometry x="126" width="42" height="24" as="geometry">
            <mxRectangle width="42" height="24" as="alternateBounds" />
          </mxGeometry>
        </mxCell>
        <mxCell id="iUtMdNy8Lq5hEOHV9AKj-29" value="" style="shape=partialRectangle;html=1;whiteSpace=wrap;connectable=0;strokeColor=inherit;overflow=hidden;fillColor=none;top=0;left=0;bottom=0;right=0;pointerEvents=1;" parent="iUtMdNy8Lq5hEOHV9AKj-24" vertex="1">
          <mxGeometry x="168" width="42" height="24" as="geometry">
            <mxRectangle width="42" height="24" as="alternateBounds" />
          </mxGeometry>
        </mxCell>
        <mxCell id="iUtMdNy8Lq5hEOHV9AKj-30" value="" style="shape=tableRow;horizontal=0;startSize=0;swimlaneHead=0;swimlaneBody=0;strokeColor=inherit;top=0;left=0;bottom=0;right=0;collapsible=0;dropTarget=0;fillColor=none;points=[[0,0.5],[1,0.5]];portConstraint=eastwest;" parent="iUtMdNy8Lq5hEOHV9AKj-11" vertex="1">
          <mxGeometry y="64" width="210" height="24" as="geometry" />
        </mxCell>
        <mxCell id="iUtMdNy8Lq5hEOHV9AKj-31" value="" style="shape=partialRectangle;html=1;whiteSpace=wrap;connectable=0;strokeColor=inherit;overflow=hidden;fillColor=none;top=0;left=0;bottom=0;right=0;pointerEvents=1;" parent="iUtMdNy8Lq5hEOHV9AKj-30" vertex="1">
          <mxGeometry width="42" height="24" as="geometry">
            <mxRectangle width="42" height="24" as="alternateBounds" />
          </mxGeometry>
        </mxCell>
        <mxCell id="iUtMdNy8Lq5hEOHV9AKj-32" value="" style="shape=partialRectangle;html=1;whiteSpace=wrap;connectable=0;strokeColor=inherit;overflow=hidden;fillColor=none;top=0;left=0;bottom=0;right=0;pointerEvents=1;" parent="iUtMdNy8Lq5hEOHV9AKj-30" vertex="1">
          <mxGeometry x="42" width="64" height="24" as="geometry">
            <mxRectangle width="64" height="24" as="alternateBounds" />
          </mxGeometry>
        </mxCell>
        <mxCell id="iUtMdNy8Lq5hEOHV9AKj-33" value="" style="shape=partialRectangle;html=1;whiteSpace=wrap;connectable=0;strokeColor=inherit;overflow=hidden;fillColor=none;top=0;left=0;bottom=0;right=0;pointerEvents=1;" parent="iUtMdNy8Lq5hEOHV9AKj-30" vertex="1">
          <mxGeometry x="106" width="20" height="24" as="geometry">
            <mxRectangle width="20" height="24" as="alternateBounds" />
          </mxGeometry>
        </mxCell>
        <mxCell id="iUtMdNy8Lq5hEOHV9AKj-34" value="" style="shape=partialRectangle;html=1;whiteSpace=wrap;connectable=0;strokeColor=inherit;overflow=hidden;fillColor=none;top=0;left=0;bottom=0;right=0;pointerEvents=1;" parent="iUtMdNy8Lq5hEOHV9AKj-30" vertex="1">
          <mxGeometry x="126" width="42" height="24" as="geometry">
            <mxRectangle width="42" height="24" as="alternateBounds" />
          </mxGeometry>
        </mxCell>
        <mxCell id="iUtMdNy8Lq5hEOHV9AKj-35" value="" style="shape=partialRectangle;html=1;whiteSpace=wrap;connectable=0;strokeColor=inherit;overflow=hidden;fillColor=none;top=0;left=0;bottom=0;right=0;pointerEvents=1;" parent="iUtMdNy8Lq5hEOHV9AKj-30" vertex="1">
          <mxGeometry x="168" width="42" height="24" as="geometry">
            <mxRectangle width="42" height="24" as="alternateBounds" />
          </mxGeometry>
        </mxCell>
        <mxCell id="iUtMdNy8Lq5hEOHV9AKj-36" value="" style="shape=tableRow;horizontal=0;startSize=0;swimlaneHead=0;swimlaneBody=0;strokeColor=inherit;top=0;left=0;bottom=0;right=0;collapsible=0;dropTarget=0;fillColor=none;points=[[0,0.5],[1,0.5]];portConstraint=eastwest;" parent="iUtMdNy8Lq5hEOHV9AKj-11" vertex="1">
          <mxGeometry y="88" width="210" height="24" as="geometry" />
        </mxCell>
        <mxCell id="iUtMdNy8Lq5hEOHV9AKj-37" value="" style="shape=partialRectangle;html=1;whiteSpace=wrap;connectable=0;strokeColor=inherit;overflow=hidden;fillColor=none;top=0;left=0;bottom=0;right=0;pointerEvents=1;" parent="iUtMdNy8Lq5hEOHV9AKj-36" vertex="1">
          <mxGeometry width="42" height="24" as="geometry">
            <mxRectangle width="42" height="24" as="alternateBounds" />
          </mxGeometry>
        </mxCell>
        <mxCell id="iUtMdNy8Lq5hEOHV9AKj-38" value="" style="shape=partialRectangle;html=1;whiteSpace=wrap;connectable=0;strokeColor=inherit;overflow=hidden;fillColor=none;top=0;left=0;bottom=0;right=0;pointerEvents=1;" parent="iUtMdNy8Lq5hEOHV9AKj-36" vertex="1">
          <mxGeometry x="42" width="64" height="24" as="geometry">
            <mxRectangle width="64" height="24" as="alternateBounds" />
          </mxGeometry>
        </mxCell>
        <mxCell id="iUtMdNy8Lq5hEOHV9AKj-39" value="" style="shape=partialRectangle;html=1;whiteSpace=wrap;connectable=0;strokeColor=inherit;overflow=hidden;fillColor=none;top=0;left=0;bottom=0;right=0;pointerEvents=1;" parent="iUtMdNy8Lq5hEOHV9AKj-36" vertex="1">
          <mxGeometry x="106" width="20" height="24" as="geometry">
            <mxRectangle width="20" height="24" as="alternateBounds" />
          </mxGeometry>
        </mxCell>
        <mxCell id="iUtMdNy8Lq5hEOHV9AKj-40" value="" style="shape=partialRectangle;html=1;whiteSpace=wrap;connectable=0;strokeColor=inherit;overflow=hidden;fillColor=none;top=0;left=0;bottom=0;right=0;pointerEvents=1;" parent="iUtMdNy8Lq5hEOHV9AKj-36" vertex="1">
          <mxGeometry x="126" width="42" height="24" as="geometry">
            <mxRectangle width="42" height="24" as="alternateBounds" />
          </mxGeometry>
        </mxCell>
        <mxCell id="iUtMdNy8Lq5hEOHV9AKj-41" value="" style="shape=partialRectangle;html=1;whiteSpace=wrap;connectable=0;strokeColor=inherit;overflow=hidden;fillColor=none;top=0;left=0;bottom=0;right=0;pointerEvents=1;" parent="iUtMdNy8Lq5hEOHV9AKj-36" vertex="1">
          <mxGeometry x="168" width="42" height="24" as="geometry">
            <mxRectangle width="42" height="24" as="alternateBounds" />
          </mxGeometry>
        </mxCell>
        <mxCell id="iUtMdNy8Lq5hEOHV9AKj-42" value="" style="rounded=1;whiteSpace=wrap;html=1;" parent="1" vertex="1">
          <mxGeometry x="480" y="510" width="330" height="410" as="geometry" />
        </mxCell>
        <mxCell id="iUtMdNy8Lq5hEOHV9AKj-43" value="" style="rounded=1;whiteSpace=wrap;html=1;" parent="1" vertex="1">
          <mxGeometry x="520" y="530" width="250" height="160" as="geometry" />
        </mxCell>
        <mxCell id="iUtMdNy8Lq5hEOHV9AKj-44" value="" style="shape=table;startSize=0;container=1;collapsible=0;childLayout=tableLayout;" parent="1" vertex="1">
          <mxGeometry x="555" y="550" width="180" height="130" as="geometry" />
        </mxCell>
        <mxCell id="iUtMdNy8Lq5hEOHV9AKj-45" value="" style="shape=tableRow;horizontal=0;startSize=0;swimlaneHead=0;swimlaneBody=0;strokeColor=inherit;top=0;left=0;bottom=0;right=0;collapsible=0;dropTarget=0;fillColor=none;points=[[0,0.5],[1,0.5]];portConstraint=eastwest;" parent="iUtMdNy8Lq5hEOHV9AKj-44" vertex="1">
          <mxGeometry width="180" height="50" as="geometry" />
        </mxCell>
        <mxCell id="iUtMdNy8Lq5hEOHV9AKj-46" value="" style="shape=partialRectangle;html=1;whiteSpace=wrap;connectable=0;strokeColor=inherit;overflow=hidden;fillColor=none;top=0;left=0;bottom=0;right=0;pointerEvents=1;" parent="iUtMdNy8Lq5hEOHV9AKj-45" vertex="1">
          <mxGeometry width="60" height="50" as="geometry">
            <mxRectangle width="60" height="50" as="alternateBounds" />
          </mxGeometry>
        </mxCell>
        <mxCell id="iUtMdNy8Lq5hEOHV9AKj-47" value="" style="shape=partialRectangle;html=1;whiteSpace=wrap;connectable=0;strokeColor=inherit;overflow=hidden;fillColor=none;top=0;left=0;bottom=0;right=0;pointerEvents=1;" parent="iUtMdNy8Lq5hEOHV9AKj-45" vertex="1">
          <mxGeometry x="60" width="60" height="50" as="geometry">
            <mxRectangle width="60" height="50" as="alternateBounds" />
          </mxGeometry>
        </mxCell>
        <mxCell id="iUtMdNy8Lq5hEOHV9AKj-48" value="" style="shape=partialRectangle;html=1;whiteSpace=wrap;connectable=0;strokeColor=inherit;overflow=hidden;fillColor=none;top=0;left=0;bottom=0;right=0;pointerEvents=1;" parent="iUtMdNy8Lq5hEOHV9AKj-45" vertex="1">
          <mxGeometry x="120" width="60" height="50" as="geometry">
            <mxRectangle width="60" height="50" as="alternateBounds" />
          </mxGeometry>
        </mxCell>
        <mxCell id="iUtMdNy8Lq5hEOHV9AKj-49" value="" style="shape=tableRow;horizontal=0;startSize=0;swimlaneHead=0;swimlaneBody=0;strokeColor=inherit;top=0;left=0;bottom=0;right=0;collapsible=0;dropTarget=0;fillColor=none;points=[[0,0.5],[1,0.5]];portConstraint=eastwest;" parent="iUtMdNy8Lq5hEOHV9AKj-44" vertex="1">
          <mxGeometry y="50" width="180" height="40" as="geometry" />
        </mxCell>
        <mxCell id="iUtMdNy8Lq5hEOHV9AKj-50" value="" style="shape=partialRectangle;html=1;whiteSpace=wrap;connectable=0;strokeColor=inherit;overflow=hidden;fillColor=none;top=0;left=0;bottom=0;right=0;pointerEvents=1;" parent="iUtMdNy8Lq5hEOHV9AKj-49" vertex="1">
          <mxGeometry width="60" height="40" as="geometry">
            <mxRectangle width="60" height="40" as="alternateBounds" />
          </mxGeometry>
        </mxCell>
        <mxCell id="iUtMdNy8Lq5hEOHV9AKj-51" value="" style="shape=partialRectangle;html=1;whiteSpace=wrap;connectable=0;strokeColor=inherit;overflow=hidden;fillColor=none;top=0;left=0;bottom=0;right=0;pointerEvents=1;" parent="iUtMdNy8Lq5hEOHV9AKj-49" vertex="1">
          <mxGeometry x="60" width="60" height="40" as="geometry">
            <mxRectangle width="60" height="40" as="alternateBounds" />
          </mxGeometry>
        </mxCell>
        <mxCell id="iUtMdNy8Lq5hEOHV9AKj-52" value="" style="shape=partialRectangle;html=1;whiteSpace=wrap;connectable=0;strokeColor=inherit;overflow=hidden;fillColor=none;top=0;left=0;bottom=0;right=0;pointerEvents=1;" parent="iUtMdNy8Lq5hEOHV9AKj-49" vertex="1">
          <mxGeometry x="120" width="60" height="40" as="geometry">
            <mxRectangle width="60" height="40" as="alternateBounds" />
          </mxGeometry>
        </mxCell>
        <mxCell id="iUtMdNy8Lq5hEOHV9AKj-53" value="" style="shape=tableRow;horizontal=0;startSize=0;swimlaneHead=0;swimlaneBody=0;strokeColor=inherit;top=0;left=0;bottom=0;right=0;collapsible=0;dropTarget=0;fillColor=none;points=[[0,0.5],[1,0.5]];portConstraint=eastwest;" parent="iUtMdNy8Lq5hEOHV9AKj-44" vertex="1">
          <mxGeometry y="90" width="180" height="40" as="geometry" />
        </mxCell>
        <mxCell id="iUtMdNy8Lq5hEOHV9AKj-54" value="" style="shape=partialRectangle;html=1;whiteSpace=wrap;connectable=0;strokeColor=inherit;overflow=hidden;fillColor=none;top=0;left=0;bottom=0;right=0;pointerEvents=1;" parent="iUtMdNy8Lq5hEOHV9AKj-53" vertex="1">
          <mxGeometry width="60" height="40" as="geometry">
            <mxRectangle width="60" height="40" as="alternateBounds" />
          </mxGeometry>
        </mxCell>
        <mxCell id="iUtMdNy8Lq5hEOHV9AKj-55" value="" style="shape=partialRectangle;html=1;whiteSpace=wrap;connectable=0;strokeColor=inherit;overflow=hidden;fillColor=none;top=0;left=0;bottom=0;right=0;pointerEvents=1;" parent="iUtMdNy8Lq5hEOHV9AKj-53" vertex="1">
          <mxGeometry x="60" width="60" height="40" as="geometry">
            <mxRectangle width="60" height="40" as="alternateBounds" />
          </mxGeometry>
        </mxCell>
        <mxCell id="iUtMdNy8Lq5hEOHV9AKj-56" value="" style="shape=partialRectangle;html=1;whiteSpace=wrap;connectable=0;strokeColor=inherit;overflow=hidden;fillColor=none;top=0;left=0;bottom=0;right=0;pointerEvents=1;" parent="iUtMdNy8Lq5hEOHV9AKj-53" vertex="1">
          <mxGeometry x="120" width="60" height="40" as="geometry">
            <mxRectangle width="60" height="40" as="alternateBounds" />
          </mxGeometry>
        </mxCell>
        <mxCell id="2wglxdZNHI0Jxw7C0v4W-1" value="Python code dev" style="rounded=0;whiteSpace=wrap;html=1;" parent="1" vertex="1">
          <mxGeometry x="140" y="1650" width="120" height="60" as="geometry" />
        </mxCell>
        <mxCell id="2wglxdZNHI0Jxw7C0v4W-4" value="website dev" style="rounded=1;whiteSpace=wrap;html=1;" parent="1" vertex="1">
          <mxGeometry x="140" y="1760" width="120" height="60" as="geometry" />
        </mxCell>
        <mxCell id="2wglxdZNHI0Jxw7C0v4W-5" value="DB dev" style="rounded=1;whiteSpace=wrap;html=1;" parent="1" vertex="1">
          <mxGeometry x="140" y="1870" width="120" height="60" as="geometry" />
        </mxCell>
        <mxCell id="2wglxdZNHI0Jxw7C0v4W-6" value="Koushlya" style="rounded=0;whiteSpace=wrap;html=1;" parent="1" vertex="1">
          <mxGeometry x="285" y="2060" width="120" height="60" as="geometry" />
        </mxCell>
        <mxCell id="2wglxdZNHI0Jxw7C0v4W-7" value="Ram" style="rounded=0;whiteSpace=wrap;html=1;" parent="1" vertex="1">
          <mxGeometry x="90" y="2390" width="120" height="60" as="geometry" />
        </mxCell>
        <mxCell id="2wglxdZNHI0Jxw7C0v4W-8" value="Laxman" style="rounded=0;whiteSpace=wrap;html=1;" parent="1" vertex="1">
          <mxGeometry x="290" y="2390" width="120" height="60" as="geometry" />
        </mxCell>
        <mxCell id="2wglxdZNHI0Jxw7C0v4W-9" value="Bharat" style="rounded=0;whiteSpace=wrap;html=1;" parent="1" vertex="1">
          <mxGeometry x="490" y="2390" width="120" height="60" as="geometry" />
        </mxCell>
        <mxCell id="2wglxdZNHI0Jxw7C0v4W-10" value="main" style="rounded=1;whiteSpace=wrap;html=1;" parent="1" vertex="1">
          <mxGeometry x="175" y="2140" width="350" height="60" as="geometry" />
        </mxCell>
        <mxCell id="2wglxdZNHI0Jxw7C0v4W-12" value="R1" style="ellipse;whiteSpace=wrap;html=1;" parent="1" vertex="1">
          <mxGeometry x="90" y="2290" width="120" height="80" as="geometry" />
        </mxCell>
        <mxCell id="2wglxdZNHI0Jxw7C0v4W-13" value="L1" style="ellipse;whiteSpace=wrap;html=1;aspect=fixed;" parent="1" vertex="1">
          <mxGeometry x="305" y="2290" width="80" height="80" as="geometry" />
        </mxCell>
        <mxCell id="2wglxdZNHI0Jxw7C0v4W-15" value="B1" style="rhombus;whiteSpace=wrap;html=1;" parent="1" vertex="1">
          <mxGeometry x="500" y="2290" width="80" height="80" as="geometry" />
        </mxCell>
        <mxCell id="2wglxdZNHI0Jxw7C0v4W-16" value="P1" style="shape=process;whiteSpace=wrap;html=1;backgroundOutline=1;" parent="1" vertex="1">
          <mxGeometry x="230" y="2220" width="210" height="60" as="geometry" />
        </mxCell>
        <mxCell id="2wglxdZNHI0Jxw7C0v4W-17" value="Parushram" style="rounded=0;whiteSpace=wrap;html=1;" parent="1" vertex="1">
          <mxGeometry x="630" y="2220" width="120" height="60" as="geometry" />
        </mxCell>
        <mxCell id="2wglxdZNHI0Jxw7C0v4W-18" value="preprod" style="rounded=1;whiteSpace=wrap;html=1;direction=south;" parent="1" vertex="1">
          <mxGeometry x="380" y="1660" width="60" height="250" as="geometry" />
        </mxCell>
        <mxCell id="2wglxdZNHI0Jxw7C0v4W-19" value="main" style="rounded=1;whiteSpace=wrap;html=1;direction=south;" parent="1" vertex="1">
          <mxGeometry x="480" y="1670" width="60" height="250" as="geometry" />
        </mxCell>
        <mxCell id="2wglxdZNHI0Jxw7C0v4W-20" value="Client" style="text;html=1;align=center;verticalAlign=middle;whiteSpace=wrap;rounded=0;" parent="1" vertex="1">
          <mxGeometry x="630" y="1790" width="60" height="30" as="geometry" />
        </mxCell>
        <mxCell id="2wglxdZNHI0Jxw7C0v4W-21" value="QA" style="rounded=1;whiteSpace=wrap;html=1;direction=south;" parent="1" vertex="1">
          <mxGeometry x="280" y="1670" width="60" height="240" as="geometry" />
        </mxCell>
        <mxCell id="2wglxdZNHI0Jxw7C0v4W-22" value="sand box" style="ellipse;whiteSpace=wrap;html=1;" parent="1" vertex="1">
          <mxGeometry x="10" y="1650" width="120" height="80" as="geometry" />
        </mxCell>
        <mxCell id="2wglxdZNHI0Jxw7C0v4W-23" value="sand box" style="ellipse;whiteSpace=wrap;html=1;" parent="1" vertex="1">
          <mxGeometry x="10" y="1760" width="120" height="80" as="geometry" />
        </mxCell>
        <mxCell id="2wglxdZNHI0Jxw7C0v4W-24" value="sand box" style="ellipse;whiteSpace=wrap;html=1;" parent="1" vertex="1">
          <mxGeometry x="10" y="1860" width="120" height="80" as="geometry" />
        </mxCell>
        <mxCell id="2wglxdZNHI0Jxw7C0v4W-25" value="GIT" style="text;html=1;align=center;verticalAlign=middle;whiteSpace=wrap;rounded=0;" parent="1" vertex="1">
          <mxGeometry x="120" y="2600" width="60" height="30" as="geometry" />
        </mxCell>
        <mxCell id="2wglxdZNHI0Jxw7C0v4W-28" value="" style="edgeStyle=orthogonalEdgeStyle;rounded=0;orthogonalLoop=1;jettySize=auto;html=1;" parent="1" source="2wglxdZNHI0Jxw7C0v4W-26" target="2wglxdZNHI0Jxw7C0v4W-27" edge="1">
          <mxGeometry relative="1" as="geometry" />
        </mxCell>
        <mxCell id="2wglxdZNHI0Jxw7C0v4W-26" value="Laptop/folder/code" style="rounded=0;whiteSpace=wrap;html=1;" parent="1" vertex="1">
          <mxGeometry x="140" y="2650" width="120" height="60" as="geometry" />
        </mxCell>
        <mxCell id="2wglxdZNHI0Jxw7C0v4W-27" value="Laptop/folder/code" style="rounded=0;whiteSpace=wrap;html=1;" parent="1" vertex="1">
          <mxGeometry x="440" y="2650" width="120" height="60" as="geometry" />
        </mxCell>
        <mxCell id="2wglxdZNHI0Jxw7C0v4W-29" value="git init" style="text;html=1;align=center;verticalAlign=middle;whiteSpace=wrap;rounded=0;" parent="1" vertex="1">
          <mxGeometry x="305" y="2690" width="60" height="30" as="geometry" />
        </mxCell>
        <mxCell id="2wglxdZNHI0Jxw7C0v4W-30" value=".git" style="text;html=1;align=center;verticalAlign=middle;whiteSpace=wrap;rounded=0;" parent="1" vertex="1">
          <mxGeometry x="465" y="2650" width="60" height="30" as="geometry" />
        </mxCell>
        <mxCell id="2wglxdZNHI0Jxw7C0v4W-33" value="" style="edgeStyle=orthogonalEdgeStyle;rounded=0;orthogonalLoop=1;jettySize=auto;html=1;" parent="1" source="2wglxdZNHI0Jxw7C0v4W-31" target="2wglxdZNHI0Jxw7C0v4W-32" edge="1">
          <mxGeometry relative="1" as="geometry" />
        </mxCell>
        <mxCell id="2wglxdZNHI0Jxw7C0v4W-31" value="" style="ellipse;whiteSpace=wrap;html=1;" parent="1" vertex="1">
          <mxGeometry x="150" y="2800" width="120" height="80" as="geometry" />
        </mxCell>
        <mxCell id="2wglxdZNHI0Jxw7C0v4W-35" value="" style="edgeStyle=orthogonalEdgeStyle;rounded=0;orthogonalLoop=1;jettySize=auto;html=1;" parent="1" source="2wglxdZNHI0Jxw7C0v4W-32" target="2wglxdZNHI0Jxw7C0v4W-34" edge="1">
          <mxGeometry relative="1" as="geometry" />
        </mxCell>
        <mxCell id="2wglxdZNHI0Jxw7C0v4W-32" value="Working Directory" style="whiteSpace=wrap;html=1;" parent="1" vertex="1">
          <mxGeometry x="350" y="2810" width="120" height="60" as="geometry" />
        </mxCell>
        <mxCell id="2wglxdZNHI0Jxw7C0v4W-34" value="" style="whiteSpace=wrap;html=1;" parent="1" vertex="1">
          <mxGeometry x="570" y="2810" width="120" height="60" as="geometry" />
        </mxCell>
        <mxCell id="2wglxdZNHI0Jxw7C0v4W-36" value="folder" style="shape=cylinder3;whiteSpace=wrap;html=1;boundedLbl=1;backgroundOutline=1;size=15;" parent="1" vertex="1">
          <mxGeometry x="100" y="3040" width="60" height="80" as="geometry" />
        </mxCell>
        <mxCell id="2wglxdZNHI0Jxw7C0v4W-37" value="Working Dir" style="shape=cylinder3;whiteSpace=wrap;html=1;boundedLbl=1;backgroundOutline=1;size=15;" parent="1" vertex="1">
          <mxGeometry x="225" y="3040" width="60" height="80" as="geometry" />
        </mxCell>
        <mxCell id="2wglxdZNHI0Jxw7C0v4W-38" value="local git repo" style="shape=cylinder3;whiteSpace=wrap;html=1;boundedLbl=1;backgroundOutline=1;size=15;" parent="1" vertex="1">
          <mxGeometry x="510" y="3040" width="60" height="80" as="geometry" />
        </mxCell>
        <mxCell id="2wglxdZNHI0Jxw7C0v4W-39" value="git remote repo" style="shape=cylinder3;whiteSpace=wrap;html=1;boundedLbl=1;backgroundOutline=1;size=15;" parent="1" vertex="1">
          <mxGeometry x="690" y="3040" width="60" height="80" as="geometry" />
        </mxCell>
        <mxCell id="2wglxdZNHI0Jxw7C0v4W-40" value="git init" style="text;html=1;align=center;verticalAlign=middle;whiteSpace=wrap;rounded=0;" parent="1" vertex="1">
          <mxGeometry x="160" y="3065" width="60" height="30" as="geometry" />
        </mxCell>
        <mxCell id="2wglxdZNHI0Jxw7C0v4W-42" value="git push" style="text;html=1;align=center;verticalAlign=middle;whiteSpace=wrap;rounded=0;" parent="1" vertex="1">
          <mxGeometry x="610" y="3065" width="60" height="30" as="geometry" />
        </mxCell>
        <mxCell id="2wglxdZNHI0Jxw7C0v4W-43" value="stagging area" style="shape=cylinder3;whiteSpace=wrap;html=1;boundedLbl=1;backgroundOutline=1;size=15;" parent="1" vertex="1">
          <mxGeometry x="370" y="3040" width="60" height="80" as="geometry" />
        </mxCell>
        <mxCell id="2wglxdZNHI0Jxw7C0v4W-44" value="git add" style="text;html=1;align=center;verticalAlign=middle;whiteSpace=wrap;rounded=0;" parent="1" vertex="1">
          <mxGeometry x="305" y="3065" width="60" height="30" as="geometry" />
        </mxCell>
        <mxCell id="2wglxdZNHI0Jxw7C0v4W-45" value="git commit -m &quot;comment&quot;" style="text;html=1;align=center;verticalAlign=middle;whiteSpace=wrap;rounded=0;" parent="1" vertex="1">
          <mxGeometry x="440" y="3065" width="60" height="30" as="geometry" />
        </mxCell>
      </root>
    </mxGraphModel>
  </diagram>
</mxfile>
